<svg width="436" height="436" viewBox="0 0 436 436" fill="none" xmlns="http://www.w3.org/2000/svg">
<g filter="url(#filter0_d)">
<path d="M102.858 14.9199H332.245C351.87 14.9199 370.691 22.7158 384.567 36.5927C398.444 50.4695 406.24 69.2905 406.24 88.9153V318.302C406.24 337.926 398.444 356.747 384.567 370.624C370.691 384.501 351.87 392.297 332.245 392.297H102.858C83.2336 392.297 64.4126 384.501 50.5358 370.624C36.659 356.747 28.863 337.926 28.863 318.302L28.863 88.9153C28.863 69.2905 36.659 50.4695 50.5358 36.5927C64.4126 22.7158 83.2336 14.9199 102.858 14.9199V14.9199Z" fill="url(#paint0_linear)"/>
</g>
<path d="M179.484 242.659L116.026 275.645C116.026 275.645 113.469 276.412 112.217 276.667C108.157 277.178 104.353 275.39 104.353 270.987V136.811C104.353 132.241 108.668 131.132 112.217 131.132C113.46 131.209 114.672 131.557 115.766 132.153L179.48 166.224C180.212 165.599 180.797 164.819 181.19 163.94C181.583 163.061 181.775 162.105 181.751 161.143L115.515 125.625C113.492 124.809 111.335 124.376 109.154 124.348C103.078 124.348 96.7173 129.174 96.7173 135.279V272.359C96.7173 278.435 103.333 283.261 109.409 283.261C111.422 283.227 113.409 282.802 115.259 282.01L181.527 247.23C181.272 247.232 182.26 244.165 179.484 242.659Z" fill="white"/>
<path d="M119.821 265.22L185.322 233.477V175.584L118.543 142.08C112.467 139.241 111.701 140.574 111.701 146.14V261.386C111.701 266.725 113.973 267.747 119.821 265.22Z" fill="white"/>
<path d="M323.114 124.308C321.151 124.321 319.214 124.756 317.435 125.585L251.023 161.132C251.04 162.091 251.253 163.036 251.649 163.91C252.045 164.784 252.615 165.568 253.324 166.213L316.783 132.143C317.877 131.547 319.088 131.198 320.332 131.121C323.625 131.121 327.429 132.398 327.429 136.798V271.066C327.429 275.382 324.136 277.172 320.076 276.746C318.958 276.476 317.858 276.134 316.783 275.724L253.324 242.734C252.523 243.173 251.874 243.845 251.464 244.662C251.053 245.478 250.899 246.399 251.023 247.304L317.036 282.085C318.886 282.877 320.873 283.301 322.886 283.335C328.962 283.335 335.067 278.509 335.067 272.433V135.183C334.843 132.186 333.479 129.388 331.256 127.366C329.033 125.343 326.119 124.249 323.114 124.308V124.308Z" fill="white"/>
<path d="M248.753 233.475L312.202 265.217C317.882 267.745 319.82 266.723 319.82 261.129V146.14C319.82 140.83 318.57 139.553 312.722 142.08L248.753 175.579V233.475Z" fill="white"/>
<path d="M243.705 167.719C243.705 166.439 243.196 165.211 242.291 164.306C241.386 163.401 240.159 162.893 238.879 162.893H195.208C193.928 162.893 192.7 163.401 191.795 164.306C190.89 165.211 190.382 166.439 190.382 167.719V244.118C190.382 245.398 190.89 246.625 191.795 247.53C192.7 248.435 193.928 248.944 195.208 248.944H238.621C239.256 248.947 239.885 248.825 240.472 248.584C241.059 248.342 241.593 247.987 242.041 247.538C242.49 247.089 242.846 246.556 243.087 245.969C243.328 245.382 243.451 244.753 243.447 244.118V167.719H243.705Z" fill="white"/>
<defs>
<filter id="filter0_d" x="0.095911" y="0.536359" width="434.911" height="434.911" filterUnits="userSpaceOnUse" color-interpolation-filters="sRGB">
<feFlood flood-opacity="0" result="BackgroundImageFix"/>
<feColorMatrix in="SourceAlpha" type="matrix" values="0 0 0 0 0 0 0 0 0 0 0 0 0 0 0 0 0 0 127 0"/>
<feOffset dy="14.3836"/>
<feGaussianBlur stdDeviation="14.3836"/>
<feColorMatrix type="matrix" values="0 0 0 0 0 0 0 0 0 0 0 0 0 0 0 0 0 0 0.161 0"/>
<feBlend mode="normal" in2="BackgroundImageFix" result="effect1_dropShadow"/>
<feBlend mode="normal" in="SourceGraphic" in2="effect1_dropShadow" result="shape"/>
</filter>
<linearGradient id="paint0_linear" x1="166.983" y1="14.9199" x2="300.952" y2="392.297" gradientUnits="userSpaceOnUse">
<stop stop-color="#3471C6"/>
<stop offset="1" stop-color="#0547A5"/>
</linearGradient>
</defs>
</svg>
